<svg width="35" height="35" viewBox="0 0 35 35" fill="none" xmlns="http://www.w3.org/2000/svg">
<rect width="35" height="35" rx="17.5" fill="white"/>
<path d="M17.266 26.6916C16.8207 26.6916 16.4407 26.5333 16.126 26.2166C15.8114 25.9006 15.654 25.5206 15.654 25.0766H18.884C18.884 25.5233 18.7257 25.9043 18.409 26.2196C18.0917 26.5343 17.7107 26.6916 17.266 26.6916ZM10.769 24.0756C10.627 24.0756 10.5084 24.0276 10.413 23.9316C10.3177 23.8356 10.2697 23.7166 10.269 23.5746C10.2684 23.4326 10.3164 23.314 10.413 23.2186C10.5097 23.1233 10.6284 23.0756 10.769 23.0756H11.885V15.1526C11.885 13.846 12.2984 12.697 13.125 11.7056C13.9517 10.7143 14.9997 10.0966 16.269 9.85264V9.30664C16.269 9.02864 16.366 8.79264 16.5601 8.59864C16.7541 8.40397 16.9897 8.30664 17.267 8.30664C17.5444 8.30664 17.7807 8.40397 17.976 8.59864C18.1714 8.79331 18.269 9.02931 18.269 9.30664V9.38164C18.1244 9.60764 17.9977 9.83531 17.889 10.0646C17.7804 10.294 17.6954 10.538 17.634 10.7966L17.456 10.7766C17.398 10.7713 17.3357 10.7686 17.269 10.7686C16.0537 10.7686 15.019 11.1953 14.165 12.0486C13.311 12.902 12.8844 13.9366 12.8851 15.1526V23.0756H21.654V16.9976C21.8127 17.0276 21.9764 17.0513 22.145 17.0686C22.3137 17.086 22.4831 17.0883 22.6531 17.0756V23.0756H23.769C23.911 23.0756 24.0297 23.1236 24.1251 23.2196C24.2211 23.3156 24.269 23.4346 24.269 23.5766C24.269 23.7186 24.2211 23.8373 24.1251 23.9326C24.0291 24.028 23.9104 24.0756 23.769 24.0756H10.769ZM22.2331 14.7106C21.5391 14.7106 20.9484 14.4676 20.4611 13.9816C19.9737 13.4956 19.7304 12.906 19.731 12.2126C19.7317 11.5193 19.9744 10.9286 20.459 10.4406C20.9437 9.95264 21.5337 9.70931 22.229 9.71064C22.9244 9.71197 23.5144 9.95464 23.999 10.4386C24.4837 10.9226 24.7277 11.5126 24.731 12.2086C24.7344 12.9046 24.4914 13.495 24.002 13.9796C23.5127 14.4643 22.9227 14.7076 22.232 14.7096" fill="#2E2F2D"/>
</svg>
