<svg width="16" height="18" viewBox="0 0 16 18" fill="none" xmlns="http://www.w3.org/2000/svg">
<path d="M2 18C1.436 18 0.961667 17.8077 0.577 17.423C0.192333 17.0383 0 16.564 0 16V14.846C0 14.402 0.158333 14.022 0.475 13.706C0.791667 13.39 1.17167 13.2317 1.615 13.231H3V1.616C3 1.17133 3.15833 0.791 3.475 0.475C3.79167 0.159 4.17167 0.000666667 4.615 0H14.385C14.829 0 15.209 0.158333 15.525 0.475C15.841 0.791667 15.9993 1.17167 16 1.615V16C16 16.564 15.8077 17.0383 15.423 17.423C15.0383 17.8077 14.564 18 14 18H2ZM14 17C14.2833 17 14.521 16.904 14.713 16.712C14.905 16.52 15.0007 16.2827 15 16V1.616C15 1.436 14.9423 1.28833 14.827 1.173C14.7117 1.05767 14.5643 1 14.385 1H4.615C4.43567 1 4.28833 1.05767 4.173 1.173C4.05767 1.28833 4 1.436 4 1.616V13.23H11.385C11.829 13.23 12.209 13.388 12.525 13.704C12.841 14.02 12.9993 14.4007 13 14.846V16C13 16.2833 13.096 16.521 13.288 16.713C13.48 16.905 13.7173 17.0007 14 17ZM5.885 5.385C5.743 5.385 5.624 5.337 5.528 5.241C5.43267 5.145 5.385 5.026 5.385 4.884C5.385 4.742 5.43267 4.62333 5.528 4.528C5.62333 4.43267 5.74233 4.385 5.885 4.385H13.115C13.257 4.385 13.376 4.433 13.472 4.529C13.568 4.625 13.6157 4.74367 13.615 4.885C13.6143 5.02633 13.5667 5.145 13.472 5.241C13.3773 5.337 13.2583 5.385 13.115 5.385H5.885ZM5.885 8.154C5.743 8.154 5.624 8.106 5.528 8.01C5.43267 7.914 5.385 7.795 5.385 7.653C5.385 7.511 5.43267 7.39233 5.528 7.297C5.62333 7.20167 5.74233 7.154 5.885 7.154H13.115C13.257 7.154 13.376 7.202 13.472 7.298C13.568 7.394 13.6157 7.513 13.615 7.655C13.6143 7.797 13.5667 7.91567 13.472 8.011C13.3773 8.10633 13.2583 8.154 13.115 8.154H5.885Z" fill="#448E93"/>
</svg>
